<svg width="36" height="36" viewBox="0 0 36 36" fill="none" xmlns="http://www.w3.org/2000/svg">
<rect width="36" height="36" fill="#1E1E1E"/>
<rect x="0.5" y="0.5" width="35" height="35" rx="4.5" stroke="#08B987"/>
<path d="M14.0274 24.8419C14.0274 24.9387 13.9161 25.0161 13.7758 25.0161C13.6161 25.0306 13.5048 24.9532 13.5048 24.8419C13.5048 24.7452 13.6161 24.6677 13.7565 24.6677C13.9016 24.6532 14.0274 24.7306 14.0274 24.8419ZM12.5226 24.6242C12.4887 24.721 12.5855 24.8323 12.7306 24.8613C12.8565 24.9097 13.0016 24.8613 13.0306 24.7645C13.0597 24.6677 12.9677 24.5565 12.8226 24.5129C12.6968 24.479 12.5565 24.5274 12.5226 24.6242ZM14.6613 24.5419C14.521 24.5758 14.4242 24.6677 14.4387 24.779C14.4532 24.8758 14.579 24.9387 14.7242 24.9048C14.8645 24.871 14.9613 24.779 14.9468 24.6823C14.9323 24.5903 14.8016 24.5274 14.6613 24.5419ZM17.8452 6C11.1339 6 6 11.0952 6 17.8065C6 23.1726 9.37742 27.7645 14.2016 29.3806C14.821 29.4919 15.0387 29.1097 15.0387 28.7952C15.0387 28.4952 15.0242 26.8403 15.0242 25.8242C15.0242 25.8242 11.6371 26.55 10.9258 24.3823C10.9258 24.3823 10.3742 22.9742 9.58065 22.6113C9.58065 22.6113 8.47258 21.8516 9.65806 21.8661C9.65806 21.8661 10.8629 21.9629 11.5258 23.1145C12.5855 24.9823 14.3613 24.4452 15.0532 24.1258C15.1645 23.3516 15.479 22.8145 15.8274 22.4952C13.1226 22.1952 10.3935 21.8032 10.3935 17.1484C10.3935 15.8177 10.7613 15.15 11.5355 14.2984C11.4097 13.9839 10.9984 12.6871 11.6613 11.0129C12.6726 10.6984 15 12.3194 15 12.3194C15.9677 12.0484 17.0081 11.9081 18.0387 11.9081C19.0694 11.9081 20.1097 12.0484 21.0774 12.3194C21.0774 12.3194 23.4048 10.6935 24.4161 11.0129C25.079 12.6919 24.6677 13.9839 24.5419 14.2984C25.3161 15.1548 25.7903 15.8226 25.7903 17.1484C25.7903 21.8177 22.9403 22.1903 20.2355 22.4952C20.6806 22.8774 21.0581 23.6032 21.0581 24.7403C21.0581 26.371 21.0435 28.3887 21.0435 28.7855C21.0435 29.1 21.2661 29.4823 21.8806 29.371C26.7194 27.7645 30 23.1726 30 17.8065C30 11.0952 24.5565 6 17.8452 6ZM10.7032 22.6887C10.6403 22.7371 10.6548 22.8484 10.7371 22.9403C10.8145 23.0177 10.9258 23.0516 10.9887 22.9887C11.0516 22.9403 11.0371 22.829 10.9548 22.7371C10.8774 22.6597 10.7661 22.6258 10.7032 22.6887ZM10.1806 22.2968C10.1468 22.3597 10.1952 22.4371 10.2919 22.4855C10.3694 22.5339 10.4661 22.5194 10.5 22.4516C10.5339 22.3887 10.4855 22.3113 10.3887 22.2629C10.2919 22.2339 10.2145 22.2484 10.1806 22.2968ZM11.7484 24.0194C11.671 24.0823 11.7 24.2274 11.8113 24.3194C11.9226 24.4306 12.0629 24.4452 12.1258 24.3677C12.1887 24.3048 12.1597 24.1597 12.0629 24.0677C11.9565 23.9565 11.8113 23.9419 11.7484 24.0194ZM11.1968 23.3081C11.1194 23.3565 11.1194 23.4823 11.1968 23.5935C11.2742 23.7048 11.4048 23.7532 11.4677 23.7048C11.5452 23.6419 11.5452 23.5161 11.4677 23.4048C11.4 23.2935 11.2742 23.2452 11.1968 23.3081Z" fill="#08B987"/>
</svg>
