<svg width="36" height="36" viewBox="0 0 36 36" fill="none" xmlns="http://www.w3.org/2000/svg">
<rect width="36" height="36" fill="#1E1E1E"/>
<rect x="0.5" y="0.5" width="35" height="35" rx="4.5" stroke="#08B987"/>
<path d="M17.9918 11.4225C14.5866 11.4225 11.8399 14.1586 11.8399 17.5508C11.8399 20.9429 14.5866 23.679 17.9918 23.679C21.3971 23.679 24.1437 20.9429 24.1437 17.5508C24.1437 14.1586 21.3971 11.4225 17.9918 11.4225ZM17.9918 21.535C15.7913 21.535 13.9923 19.7482 13.9923 17.5508C13.9923 15.3534 15.7859 13.5666 17.9918 13.5666C20.1977 13.5666 21.9914 15.3534 21.9914 17.5508C21.9914 19.7482 20.1924 21.535 17.9918 21.535ZM25.8303 11.1718C25.8303 11.9665 25.1878 12.6012 24.3954 12.6012C23.5976 12.6012 22.9605 11.9612 22.9605 11.1718C22.9605 10.3825 23.603 9.74245 24.3954 9.74245C25.1878 9.74245 25.8303 10.3825 25.8303 11.1718ZM29.9048 12.6226C29.8138 10.7078 29.3747 9.01175 27.9666 7.61436C26.5638 6.21697 24.8612 5.77962 22.9391 5.68361C20.958 5.57161 15.0203 5.57161 13.0392 5.68361C11.1224 5.77428 9.41981 6.21164 8.01167 7.60903C6.60352 9.00642 6.16984 10.7025 6.07346 12.6172C5.96103 14.5907 5.96103 20.5056 6.07346 22.479C6.16448 24.3937 6.60352 26.0898 8.01167 27.4872C9.41981 28.8846 11.1171 29.322 13.0392 29.418C15.0203 29.53 20.958 29.53 22.9391 29.418C24.8612 29.3273 26.5638 28.8899 27.9666 27.4872C29.3694 26.0898 29.8084 24.3937 29.9048 22.479C30.0172 20.5056 30.0172 14.596 29.9048 12.6226ZM27.3455 24.5964C26.9279 25.6418 26.1194 26.4472 25.0647 26.8685C23.4852 27.4925 19.7373 27.3485 17.9918 27.3485C16.2464 27.3485 12.4931 27.4872 10.919 26.8685C9.86956 26.4525 9.06108 25.6471 8.6381 24.5964C8.01167 23.023 8.15623 19.2895 8.15623 17.5508C8.15623 15.812 8.01702 12.0732 8.6381 10.5052C9.05573 9.45977 9.86421 8.65441 10.919 8.23305C12.4984 7.60903 16.2464 7.75303 17.9918 7.75303C19.7373 7.75303 23.4905 7.61436 25.0647 8.23305C26.1141 8.64907 26.9225 9.45444 27.3455 10.5052C27.972 12.0786 27.8274 15.812 27.8274 17.5508C27.8274 19.2895 27.972 23.0284 27.3455 24.5964Z" fill="#08B987"/>
</svg>
