<svg width="36" height="36" viewBox="0 0 36 36" fill="none" xmlns="http://www.w3.org/2000/svg">
<rect width="36" height="36" fill="#1E1E1E"/>
<rect x="0.5" y="0.5" width="35" height="35" rx="4.5" stroke="#08B987"/>
<path d="M11.3732 30H6.39643V13.9768H11.3732V30ZM8.88214 11.7911C7.29107 11.7911 6 10.4732 6 8.88214C6 8.11775 6.30365 7.38467 6.84416 6.84416C7.38467 6.30365 8.11775 6 8.88214 6C9.64653 6 10.3796 6.30365 10.9201 6.84416C11.4606 7.38467 11.7643 8.11775 11.7643 8.88214C11.7643 10.4732 10.4732 11.7911 8.88214 11.7911ZM29.9946 30H25.0286V22.2C25.0286 20.3411 24.9911 17.9571 22.4411 17.9571C19.8536 17.9571 19.4571 19.9768 19.4571 22.0661V30H14.4857V13.9768H19.2589V16.1625H19.3286C19.9929 14.9036 21.6161 13.575 24.0375 13.575C29.0732 13.575 30 16.8911 30 21.1982V30H29.9946Z" fill="#08B987"/>
</svg>
